<svg xmlns="http://www.w3.org/2000/svg" width="1200" height="630" viewBox="0 0 1200 630" fill="none">
  <defs>
    <linearGradient id="bg" x1="0" y1="0" x2="1200" y2="630" gradientUnits="userSpaceOnUse">
      <stop stop-color="#f8f3eb"/>
      <stop offset="1" stop-color="#eee6da"/>
    </linearGradient>
  </defs>
  <rect width="1200" height="630" fill="url(#bg)"/>
  <rect x="48" y="48" width="1104" height="534" rx="28" fill="#fcf8f1" stroke="#d8cdbd" stroke-width="2"/>

  <!-- logo mark -->
  <g transform="translate(120 195) scale(3.2)">
    <rect width="40" height="40" rx="10" fill="#e9e3f7" stroke="#d8cdbd" stroke-width="1.25"/>
    <path d="M10 9h14a3 3 0 0 1 3 3v18a2.5 2.5 0 0 0-2.5-2.5H10V9z" fill="#fffdf9" stroke="#d8cdbd" stroke-width="1"/>
    <path d="M27 9h3a1.5 1.5 0 0 1 1.5 1.5v17.5a1.5 1.5 0 0 1-1.5 1.5H27V9z" fill="#f4efe7" stroke="#d8cdbd" stroke-width="1"/>
    <path d="M14.5 24.5 17.5 20.5l3 1.25 5-5.75" stroke="#15803d" stroke-width="2" stroke-linecap="round" stroke-linejoin="round"/>
    <circle cx="14.5" cy="24.5" r="1.25" fill="#15803d"/>
  </g>

  <text x="300" y="285" fill="#3b352f" font-family="Inter, system-ui, sans-serif" font-size="72" font-weight="700" letter-spacing="-1.5">Port Diary</text>
  <text x="300" y="355" fill="#575046" font-family="Inter, system-ui, sans-serif" font-size="34" font-weight="500">16-#L2#%8-"H2!5#0</text>
  <text x="300" y="420" fill="#756c61" font-family="Inter, system-ui, sans-serif" font-size="26" font-weight="400">Journal · #2 · H2' · AI '4@#20+L-#L</text>

  <rect x="300" y="455" width="220" height="52" rx="12" fill="#5a4ad6"/>
  <text x="410" y="490" fill="#ffffff" font-family="Inter, system-ui, sans-serif" font-size="22" font-weight="600" text-anchor="middle">portdiary.com</text>
</svg>
